<svg height="421.594pt" viewBox="0 0 421.594 421.594" width="421.594pt" xmlns="http://www.w3.org/2000/svg"><path d="m94.394531 315.882812c-24.238281-26.738281-38.472656-61.039062-40.289062-97.082031h-54.10156275c1.87890575 50.382813 21.80859375 98.414063 56.15234375 135.328125zm0 0"/><path d="m0 202.800781h54.101562c1.828126-36.273437 16.230469-70.777343 40.738282-97.585937l-38.234375-38.234375c-34.617188 36.972656-54.71875 85.203125-56.605469 135.820312zm0 0"/><path d="m106.210938 93.953125c26.667968-23.96875 60.769531-38.039063 96.582031-39.847656v-54.105469c-50.15625 1.871094-97.984375 21.628906-134.839844 55.699219zm0 0"/><path d="m327.195312 105.710938c24.238282 26.738281 38.476563 61.042968 40.296876 97.089843h54.101562c-1.878906-50.386719-21.808594-98.417969-56.152344-135.332031zm0 0"/><path d="m354.125 56.152344c-36.914062-34.34375-84.945312-54.273438-135.332031-56.152344v54.101562c36.046875 1.816407 70.351562 16.058594 97.089843 40.296876zm0 0"/><path d="m69.902344 210.800781c0 77.6875 63.203125 140.894531 140.898437 140.894531 77.695313 0 140.894531-63.207031 140.894531-140.894531s-63.210937-140.902343-140.902343-140.902343c-77.691407 0-140.890625 63.210937-140.890625 140.902343zm147.890625-85v10.773438c19.652343 3.425781 34.003906 20.472656 34.03125 40.417969 0 4.417968-3.582031 8-8 8s-8-3.582032-8-8c0-13.824219-11.207031-25.027344-25.03125-25.027344-13.820313 0-25.027344 11.203125-25.027344 25.027344 0 13.824218 11.207031 25.03125 25.027344 25.03125 21.296875-.003907 39.054687 16.292968 40.878906 37.511718s-12.894531 40.304688-33.878906 43.9375v12.328125c0 4.417969-3.582031 8-8 8s-8-3.582031-8-8v-12.726562c-18.707031-4.230469-32-20.84375-32.027344-40.023438 0-4.417969 3.582031-8 8-8s8 3.582031 8 8c0 13.824219 11.207031 25.027344 25.027344 25.027344 13.824219 0 25.03125-11.203125 25.03125-25.027344s-11.207031-25.027343-25.03125-25.027343c-20.90625 0-38.46875-15.71875-40.773438-36.5-2.308593-20.777344 11.378907-39.96875 31.773438-44.550782v-11.171875c0-4.417969 3.582031-8 8-8s8 3.582031 8 8zm0 0"/><path d="m218.792969 367.488281v54.101563c50.617187-1.886719 98.847656-21.988282 135.820312-56.605469l-38.234375-38.238281c-26.808594 24.507812-61.3125 38.914062-97.585937 40.742187zm0 0"/><path d="m327.636719 315.386719 38.257812 38.253906c34.070313-36.855469 53.832031-84.683594 55.699219-134.839844h-54.101562c-1.808594 35.8125-15.878907 69.917969-39.855469 96.585938zm0 0"/><path d="m86.859375 346.046875-19.394531 19.394531c36.914062 34.34375 84.945312 54.273438 135.328125 56.152344v-54.101562c-36.042969-1.816407-70.34375-16.054688-97.082031-40.292969zm0 0"/></svg>