<svg height="512pt" viewBox="0 0 512 512" width="512pt" xmlns="http://www.w3.org/2000/svg"><path d="m256 512c-141.160156 0-256-114.839844-256-256s114.839844-256 256-256 256 114.839844 256 256-114.839844 256-256 256zm0-496c-132.335938 0-240 107.664062-240 240s107.664062 240 240 240 240-107.664062 240-240-107.664062-240-240-240zm0 0" fill="#e6e9ed"/><path d="m432 448c-17.039062 0-30.871094 13.28125-31.921875 30-.796875-.480469-1.511719-1.039062-2.308594-1.679688-13.210937-10.242187-21.769531-26.242187-21.769531-44.320312 0-30.960938 25.039062-56 56-56 18.078125 0 34.167969 8.558594 44.238281 21.839844 7.441407 9.441406 11.761719 21.28125 11.761719 34.160156 0 19.121094-9.511719 35.921875-24.078125 46-1.042969-16.71875-14.960937-30-31.921875-30 8.808594 0 16-7.199219 16-16s-7.191406-16-16-16c-8.800781 0-16 7.199219-16 16s7.199219 16 16 16zm0 0" fill="#656d78"/><path d="m432 448c16.960938 0 30.878906 13.28125 31.921875 30-9.042969 6.320312-20.082031 10-31.921875 10-11.832031 0-22.871094-3.679688-31.921875-10 1.050781-16.71875 14.882813-30 31.921875-30zm0 0" fill="#ac92ec"/><path d="m423.039062 376.785156c-2.390624.390625-4.757812.886719-7.039062 1.566406 23.128906 6.878907 40 28.28125 40 53.648438 0 8.039062-1.847656 15.601562-4.902344 22.503906 7.261719 5.464844 12.214844 13.847656 12.832032 23.480469.191406-.144531.375-.289063.566406-.433594 1.390625-.992187 2.726562-2.039062 4.015625-3.152343.527343-.453126 1.039062-.925782 1.542969-1.40625.96875-.886719 1.898437-1.824219 2.800781-2.785157.542969-.582031 1.089843-1.167969 1.609375-1.765625.832031-.96875 1.613281-1.984375 2.382812-3.015625.464844-.609375.945313-1.203125 1.375-1.839843 1.097656-1.59375 2.121094-3.234376 3.050782-4.945313.3125-.585937.566406-1.199219.855468-1.800781.613282-1.238282 1.214844-2.488282 1.742188-3.777344.3125-.773438.578125-1.558594.847656-2.34375.425781-1.191406.824219-2.40625 1.167969-3.628906.21875-.800782.433593-1.601563.617187-2.410156.3125-1.359376.558594-2.734376.785156-4.136719.101563-.703125.230469-1.390625.320313-2.109375.230469-2.097656.390625-4.25.390625-6.433594 0-2.894531-.289062-5.71875-.710938-8.496094-.082031-.519531-.152343-1.054687-.242187-1.574218-.488281-2.664063-1.152344-5.265626-2-7.785157-.144531-.417969-.304687-.816406-.445313-1.214843-2-5.472657-4.800781-10.570313-8.363281-15.089844-3.734375-4.917969-8.292969-9.175782-13.476562-12.609375-.328125-.214844-.683594-.40625-1.019531-.613281-1.292969-.824219-2.628907-1.601563-4.007813-2.3125-.605469-.320313-1.238281-.609376-1.863281-.90625-1.167969-.542969-2.335938-1.0625-3.535156-1.527344-.71875-.277344-1.449219-.542969-2.167969-.800782-1.183594-.40625-2.398438-.765624-3.625-1.09375-.742188-.199218-1.488281-.410156-2.230469-.578124-1.34375-.292969-2.703125-.519532-4.082031-.726563-.664063-.105469-1.308594-.222656-1.972657-.304687-2.066406-.222657-4.136718-.367188-6.257812-.367188-2.535156 0-5.03125.214844-7.488281.550781-.488281.074219-.984375.152344-1.472657.234375zm0 0" fill="#434a54"/><path d="m441.566406 487.128906c2.488282-.433594 4.929688-.976562 7.296875-1.722656.214844-.070312.433594-.167969.648438-.238281 2.191406-.71875 4.320312-1.601563 6.382812-2.574219.503907-.234375 1.015625-.472656 1.503907-.730469 2.210937-1.136719 4.363281-2.375 6.386718-3.785156.046875-.03125.085938-.0625.136719-.09375-.609375-9.625-5.5625-18.015625-12.832031-23.480469-6.570313 14.855469-19.265625 26.398438-35.035156 31.121094 1.050781.304688 2.136718.503906 3.203124.75 1.453126.34375 2.871094.753906 4.375.976562 2.734376.417969 5.527344.648438 8.367188.648438 2.640625 0 5.214844-.246094 7.769531-.601562.605469-.085938 1.207031-.175782 1.796875-.269532zm0 0" fill="#967adc"/><path d="m80 448c-17.039062 0-30.871094 13.28125-31.921875 30-.796875-.480469-1.511719-1.039062-2.308594-1.679688-13.210937-10.242187-21.769531-26.242187-21.769531-44.320312 0-30.960938 25.039062-56 56-56 18.078125 0 34.167969 8.558594 44.238281 21.839844 7.441407 9.441406 11.761719 21.28125 11.761719 34.160156 0 19.121094-9.511719 35.921875-24.078125 46-1.042969-16.71875-14.960937-30-31.921875-30 8.808594 0 16-7.199219 16-16s-7.191406-16-16-16c-8.800781 0-16 7.199219-16 16s7.199219 16 16 16zm0 0" fill="#656d78"/><path d="m80 448c16.960938 0 30.878906 13.28125 31.921875 30-9.042969 6.320312-20.082031 10-31.921875 10-11.832031 0-22.871094-3.679688-31.921875-10 1.050781-16.71875 14.882813-30 31.921875-30zm0 0" fill="#ac92ec"/><path d="m71.039062 376.785156c-2.390624.382813-4.757812.886719-7.039062 1.566406 23.128906 6.878907 40 28.28125 40 53.648438 0 8.039062-1.847656 15.601562-4.902344 22.503906 7.261719 5.464844 12.214844 13.847656 12.832032 23.480469.191406-.144531.375-.289063.566406-.433594 1.390625-.992187 2.726562-2.039062 4.015625-3.152343.527343-.453126 1.039062-.925782 1.542969-1.40625.96875-.886719 1.898437-1.824219 2.800781-2.785157.542969-.582031 1.089843-1.167969 1.609375-1.765625.832031-.96875 1.613281-1.984375 2.382812-3.015625.464844-.609375.945313-1.203125 1.375-1.839843 1.097656-1.59375 2.121094-3.234376 3.050782-4.945313.3125-.585937.566406-1.199219.855468-1.800781.613282-1.238282 1.214844-2.488282 1.742188-3.777344.3125-.773438.578125-1.558594.847656-2.34375.425781-1.191406.824219-2.40625 1.167969-3.628906.21875-.800782.433593-1.601563.617187-2.410156.3125-1.359376.558594-2.734376.785156-4.136719.101563-.703125.230469-1.390625.320313-2.109375.230469-2.097656.390625-4.25.390625-6.433594 0-2.894531-.289062-5.71875-.710938-8.496094-.082031-.519531-.152343-1.054687-.242187-1.574218-.488281-2.664063-1.152344-5.265626-2-7.785157-.144531-.417969-.304687-.816406-.445313-1.214843-2-5.472657-4.800781-10.570313-8.363281-15.089844-3.734375-4.917969-8.292969-9.175782-13.476562-12.609375-.328125-.214844-.683594-.40625-1.019531-.613281-1.292969-.824219-2.628907-1.601563-4.007813-2.3125-.605469-.320313-1.238281-.609376-1.863281-.90625-1.167969-.542969-2.335938-1.0625-3.535156-1.527344-.71875-.277344-1.449219-.542969-2.167969-.800782-1.183594-.40625-2.398438-.765624-3.625-1.09375-.742188-.199218-1.488281-.410156-2.230469-.578124-1.34375-.292969-2.703125-.519532-4.082031-.726563-.664063-.105469-1.308594-.222656-1.972657-.304687-2.066406-.222657-4.136718-.367188-6.257812-.367188-2.535156 0-5.03125.214844-7.488281.550781-.488281.074219-.984375.152344-1.472657.234375zm0 0" fill="#434a54"/><path d="m89.566406 487.128906c2.488282-.433594 4.929688-.976562 7.296875-1.722656.214844-.070312.433594-.167969.648438-.238281 2.191406-.71875 4.320312-1.601563 6.382812-2.574219.503907-.234375 1.015625-.472656 1.503907-.730469 2.210937-1.136719 4.363281-2.375 6.386718-3.785156.046875-.03125.085938-.0625.136719-.09375-.609375-9.625-5.5625-18.015625-12.832031-23.480469-6.570313 14.855469-19.265625 26.398438-35.035156 31.121094 1.050781.304688 2.136718.503906 3.203124.75 1.453126.34375 2.871094.753906 4.375.976562 2.734376.417969 5.527344.648438 8.367188.648438 2.640625 0 5.214844-.246094 7.769531-.601562.605469-.085938 1.207031-.175782 1.796875-.269532zm0 0" fill="#967adc"/><path d="m432 96c-17.039062 0-30.871094 13.28125-31.921875 30-.796875-.480469-1.511719-1.039062-2.308594-1.679688-13.210937-10.242187-21.769531-26.242187-21.769531-44.320312 0-30.960938 25.039062-56 56-56 18.078125 0 34.167969 8.558594 44.238281 21.839844 7.441407 9.441406 11.761719 21.28125 11.761719 34.160156 0 19.121094-9.511719 35.921875-24.078125 46-1.042969-16.71875-14.960937-30-31.921875-30 8.808594 0 16-7.199219 16-16s-7.191406-16-16-16c-8.800781 0-16 7.199219-16 16s7.199219 16 16 16zm0 0" fill="#656d78"/><path d="m432 96c16.960938 0 30.878906 13.28125 31.921875 30-9.042969 6.320312-20.082031 10-31.921875 10-11.832031 0-22.871094-3.679688-31.921875-10 1.050781-16.71875 14.882813-30 31.921875-30zm0 0" fill="#ac92ec"/><path d="m423.039062 24.785156c-2.390624.382813-4.757812.886719-7.039062 1.566406 23.128906 6.878907 40 28.28125 40 53.648438 0 8.039062-1.847656 15.601562-4.902344 22.503906 7.261719 5.464844 12.214844 13.847656 12.832032 23.480469.191406-.144531.375-.289063.566406-.433594 1.390625-.992187 2.726562-2.039062 4.015625-3.152343.527343-.453126 1.039062-.925782 1.542969-1.40625.96875-.886719 1.898437-1.824219 2.800781-2.785157.542969-.582031 1.089843-1.167969 1.609375-1.765625.832031-.96875 1.613281-1.984375 2.382812-3.015625.464844-.609375.945313-1.203125 1.375-1.839843 1.097656-1.59375 2.121094-3.234376 3.050782-4.945313.3125-.585937.566406-1.199219.855468-1.800781.613282-1.238282 1.214844-2.488282 1.742188-3.777344.3125-.773438.578125-1.558594.847656-2.34375.425781-1.191406.824219-2.40625 1.167969-3.628906.21875-.800782.433593-1.601563.617187-2.410156.3125-1.359376.558594-2.734376.785156-4.136719.101563-.703125.230469-1.390625.320313-2.109375.230469-2.097656.390625-4.25.390625-6.433594 0-2.894531-.289062-5.71875-.710938-8.496094-.082031-.519531-.152343-1.054687-.242187-1.574218-.488281-2.664063-1.152344-5.265626-2-7.785157-.144531-.417969-.304687-.816406-.445313-1.214843-2-5.472657-4.800781-10.570313-8.363281-15.089844-3.734375-4.917969-8.292969-9.175782-13.476562-12.609375-.328125-.214844-.683594-.40625-1.019531-.613281-1.292969-.824219-2.628907-1.601563-4.007813-2.3125-.605469-.320313-1.238281-.609376-1.863281-.90625-1.167969-.542969-2.335938-1.0625-3.535156-1.527344-.71875-.277344-1.449219-.542969-2.167969-.800782-1.183594-.40625-2.398438-.765624-3.625-1.09375-.742188-.199218-1.488281-.410156-2.230469-.578124-1.34375-.292969-2.703125-.519532-4.082031-.726563-.664063-.105469-1.308594-.222656-1.972657-.304687-2.066406-.222657-4.136718-.367188-6.257812-.367188-2.535156 0-5.03125.214844-7.488281.550781-.488281.074219-.984375.152344-1.472657.234375zm0 0" fill="#434a54"/><path d="m441.566406 135.128906c2.488282-.433594 4.929688-.976562 7.296875-1.722656.214844-.070312.433594-.167969.648438-.238281 2.191406-.71875 4.320312-1.601563 6.382812-2.574219.503907-.234375 1.015625-.472656 1.503907-.730469 2.210937-1.136719 4.363281-2.375 6.386718-3.785156.046875-.03125.085938-.0625.136719-.09375-.609375-9.625-5.5625-18.015625-12.832031-23.480469-6.570313 14.855469-19.265625 26.398438-35.035156 31.121094 1.050781.304688 2.136718.503906 3.203124.75 1.453126.34375 2.871094.753906 4.375.976562 2.734376.417969 5.527344.648438 8.367188.648438 2.640625 0 5.214844-.246094 7.769531-.601562.605469-.085938 1.207031-.175782 1.796875-.269532zm0 0" fill="#967adc"/><path d="m407.679688 255.679688c0 11.039062-1.191407 21.921874-3.511719 32.320312h-76.167969c-8.871094 0-16-7.121094-16-16 0-8.800781 7.128906-16 16-16h-88c-8.871094 0-16-7.121094-16-16 0-8.800781 7.128906-16 16-16h64c-8.871094 0-16-7.121094-16-16 0-8.800781 7.128906-16 16-16h-40c-8.871094 0-16-7.121094-16-16 0-8.800781 7.128906-16 16-16h109.769531c21.191407 26.078125 33.910157 59.441406 33.910157 95.679688zm0 0" fill="#a0d468"/><path d="m216 320c8.808594 0 16 7.199219 16 16 0 8.878906-7.191406 16-16 16h-77.921875c-14.949219-18.238281-25.757813-40.078125-30.871094-64h68.792969c8.808594 0 16 7.199219 16 16 0 8.878906-7.191406 16-16 16zm0 0" fill="#a0d468"/><path d="m288 208c0 8.878906 7.128906 16 16 16h-64c-8.871094 0-16 7.199219-16 16 0 8.878906 7.128906 16 16 16h88c-8.871094 0-16 7.199219-16 16 0 8.878906 7.128906 16 16 16h76.167969c-14.71875 68.398438-75.679688 119.679688-148.488281 119.679688-47.359376 0-89.679688-21.679688-117.511719-55.679688h77.832031c8.808594 0 16-7.121094 16-16 0-8.800781-7.191406-16-16-16h-40c8.808594 0 16-7.121094 16-16 0-8.800781-7.191406-16-16-16h-68.800781c-2.320313-10.398438-3.519531-21.28125-3.519531-32.320312 0-83.917969 68.089843-152 152-152 47.679687 0 90.167968 21.921874 118 56.320312h-109.679688c-8.871094 0-16 7.199219-16 16 0 8.878906 7.128906 16 16 16h40c-8.871094 0-16 7.199219-16 16zm0 0" fill="#5d9cec"/><path d="m373.769531 160h-.089843c-27.832032-34.398438-70.320313-56.320312-118-56.320312-5.433594 0-10.777344.3125-16.054688.863281 41.144531 4.289062 77.367188 24.945312 102.054688 55.457031h.089843c21.191407 26.078125 33.910157 59.441406 33.910157 95.679688 0 11.039062-1.191407 21.921874-3.511719 32.320312-13.640625 63.390625-67.03125 112.007812-132.734375 118.792969 5.34375.566406 10.757812.886719 16.246094.886719 72.808593 0 133.769531-51.28125 148.488281-119.679688 2.320312-10.398438 3.511719-21.28125 3.511719-32.320312 0-36.238282-12.71875-69.601563-33.910157-95.679688zm0 0" fill="#4a89dc"/><path d="m373.769531 160h-32c21.191407 26.078125 33.910157 59.441406 33.910157 95.679688 0 11.039062-1.191407 21.921874-3.511719 32.320312h32c2.320312-10.398438 3.511719-21.28125 3.511719-32.320312 0-36.238282-12.71875-69.601563-33.910157-95.679688zm0 0" fill="#8cc152"/><path d="m80 96c-17.039062 0-30.871094 13.28125-31.921875 30-.796875-.480469-1.511719-1.039062-2.308594-1.679688-13.210937-10.242187-21.769531-26.242187-21.769531-44.320312 0-30.960938 25.039062-56 56-56 18.078125 0 34.167969 8.558594 44.238281 21.839844 7.441407 9.441406 11.761719 21.28125 11.761719 34.160156 0 19.121094-9.511719 35.921875-24.078125 46-1.042969-16.71875-14.960937-30-31.921875-30 8.808594 0 16-7.199219 16-16s-7.191406-16-16-16c-8.800781 0-16 7.199219-16 16s7.199219 16 16 16zm0 0" fill="#656d78"/><path d="m80 96c16.960938 0 30.878906 13.28125 31.921875 30-9.042969 6.320312-20.082031 10-31.921875 10-11.832031 0-22.871094-3.679688-31.921875-10 1.050781-16.71875 14.882813-30 31.921875-30zm0 0" fill="#ac92ec"/><path d="m71.039062 24.785156c-2.390624.382813-4.757812.886719-7.039062 1.566406 23.128906 6.878907 40 28.28125 40 53.648438 0 8.039062-1.847656 15.601562-4.902344 22.503906 7.261719 5.464844 12.214844 13.847656 12.832032 23.480469.191406-.144531.375-.289063.566406-.433594 1.390625-.992187 2.726562-2.039062 4.015625-3.152343.527343-.453126 1.039062-.925782 1.542969-1.40625.96875-.886719 1.898437-1.824219 2.800781-2.785157.542969-.582031 1.089843-1.167969 1.609375-1.765625.832031-.96875 1.613281-1.984375 2.382812-3.015625.464844-.609375.945313-1.203125 1.375-1.839843 1.097656-1.59375 2.121094-3.234376 3.050782-4.945313.3125-.585937.566406-1.199219.855468-1.800781.613282-1.238282 1.214844-2.488282 1.742188-3.777344.3125-.773438.578125-1.558594.847656-2.34375.425781-1.191406.824219-2.40625 1.167969-3.628906.21875-.800782.433593-1.601563.617187-2.410156.3125-1.359376.558594-2.734376.785156-4.136719.101563-.703125.230469-1.390625.320313-2.109375.230469-2.097656.390625-4.25.390625-6.433594 0-2.894531-.289062-5.71875-.710938-8.496094-.082031-.519531-.152343-1.054687-.242187-1.574218-.488281-2.664063-1.152344-5.265626-2-7.785157-.144531-.417969-.304687-.816406-.445313-1.214843-2-5.472657-4.800781-10.570313-8.363281-15.089844-3.734375-4.917969-8.292969-9.175782-13.476562-12.609375-.328125-.214844-.683594-.40625-1.019531-.613281-1.292969-.824219-2.628907-1.601563-4.007813-2.3125-.605469-.320313-1.238281-.609376-1.863281-.90625-1.167969-.542969-2.335938-1.0625-3.535156-1.527344-.71875-.277344-1.449219-.542969-2.167969-.800782-1.183594-.40625-2.398438-.765624-3.625-1.09375-.742188-.199218-1.488281-.410156-2.230469-.578124-1.34375-.292969-2.703125-.519532-4.082031-.726563-.664063-.105469-1.308594-.222656-1.972657-.304687-2.066406-.222657-4.136718-.367188-6.257812-.367188-2.535156 0-5.03125.214844-7.488281.550781-.488281.074219-.984375.152344-1.472657.234375zm0 0" fill="#434a54"/><path d="m89.566406 135.128906c2.488282-.433594 4.929688-.976562 7.296875-1.722656.214844-.070312.433594-.167969.648438-.238281 2.191406-.71875 4.320312-1.601563 6.382812-2.574219.503907-.234375 1.015625-.472656 1.503907-.730469 2.210937-1.136719 4.363281-2.375 6.386718-3.785156.046875-.03125.085938-.0625.136719-.09375-.609375-9.625-5.5625-18.015625-12.832031-23.480469-6.570313 14.855469-19.265625 26.398438-35.035156 31.121094 1.050781.304688 2.136718.503906 3.203124.75 1.453126.34375 2.871094.753906 4.375.976562 2.734376.417969 5.527344.648438 8.367188.648438 2.640625 0 5.214844-.246094 7.769531-.601562.605469-.085938 1.207031-.175782 1.796875-.269532zm0 0" fill="#967adc"/><g fill="#eac6bb"><path d="m456 432c0 13.199219-10.792969 24-24 24-13.199219 0-24-10.800781-24-24s10.800781-24 24-24c13.207031 0 24 10.800781 24 24zm0 0"/><path d="m104 432c0 13.199219-10.792969 24-24 24-13.199219 0-24-10.800781-24-24s10.800781-24 24-24c13.207031 0 24 10.800781 24 24zm0 0"/><path d="m456 80c0 13.199219-10.792969 24-24 24-13.199219 0-24-10.800781-24-24s10.800781-24 24-24c13.207031 0 24 10.800781 24 24zm0 0"/><path d="m104 80c0 13.199219-10.792969 24-24 24-13.199219 0-24-10.800781-24-24s10.800781-24 24-24c13.207031 0 24 10.800781 24 24zm0 0"/></g></svg>